<?xml version="1.0" encoding="utf-8"?>
<!-- Generator: Adobe Illustrator 27.5.0, SVG Export Plug-In . SVG Version: 6.00 Build 0)  -->
<svg version="1.1" id="PRINT" xmlns="http://www.w3.org/2000/svg" xmlns:xlink="http://www.w3.org/1999/xlink" x="0px" y="0px"
	 viewBox="0 0 500 500" style="enable-background:new 0 0 500 500;" xml:space="preserve">
<g>
	<rect id="CUSTOM-background" style="fill:none;" width="500" height="500"/>
	<g>
		<g id="CUSTOM-group_00000080185608459507824750000004789086943648849312_">
			<path style="fill:#FEA82F;" d="M395.363,213.376c0-0.307-0.835-1.047-1.388-1.537c-1.464-1.297-3.469-3.072-3.469-6.19
				c0-1.219,0.988-2.208,2.208-2.208c1.219,0,2.208,0.988,2.208,2.208c0,1.076,0.753,1.797,1.981,2.885
				c1.281,1.135,2.876,2.548,2.876,4.843C399.671,216.3,395.472,216.301,395.363,213.376z M385.98,213.155
				c1.219,0,2.208-0.988,2.208-2.208c0-1.883-1.268-3.012-2.193-3.836c-0.853-0.76-1.119-1.061-1.119-1.463
				c0-1.219-0.988-2.208-2.208-2.208c-1.219,0-2.208,0.988-2.208,2.208c0,2.447,1.563,3.839,2.597,4.76
				c0.238,0.212,0.585,0.521,0.72,0.695C383.858,212.25,384.814,213.155,385.98,213.155L385.98,213.155z M388.517,249.143
				c1.219,0,2.208-0.988,2.208-2.208v-0.097c0-2.807,2.284-5.091,5.092-5.091h15.662c2.923,0.11,2.926,4.304,0,4.416h-6.624
				c-2.924,0.107-2.926,4.307,0,4.416h6.624c1.259,0,2.437-0.353,3.44-0.965c0.14-0.063,9.843-7.16,9.918-7.234
				c0.421-0.413,0.978-0.636,1.567-0.632c0.59,0.006,1.142,0.241,1.555,0.661c0.413,0.421,0.638,0.977,0.632,1.567
				c-0.005,0.552-0.211,1.071-0.583,1.474c0,0-3.004,2.301-3.022,2.315c-7.3,5.963-11.753,7.781-19.056,7.781h-23.262
				c-2.924,0.107-2.926,4.307,0,4.416h23.262c8.294,0,13.804-2.21,21.823-8.755c0,0,3.205-2.461,3.269-2.524
				c1.263-1.239,1.967-2.896,1.984-4.665c0.017-1.769-0.657-3.439-1.896-4.701c-1.239-1.263-2.896-1.967-4.665-1.984
				c-1.712-0.016-3.329,0.613-4.576,1.775l-4.043,2.962c-0.814-2.736-3.351-4.738-6.348-4.738h-15.662
				c-4.517,0-8.309,3.166-9.271,7.396h-3.877c-2.924,0.107-2.926,4.307,0,4.416H388.517L388.517,249.143z M382.668,228.499
				c-2.924,0.108-2.926,4.307,0,4.416h52.105c2.924-0.107,2.926-4.307,0-4.416h-1.945c-0.814-12.049-8.983-19.269-21.281-20.021
				c1.355-2.141-0.274-5.076-2.827-5.038c-2.558-0.038-4.185,2.906-2.821,5.047c-3.795-0.135-3.561,4.586-0.39,4.463
				c1.042-0.1,2.144-0.152,3.275-0.153c15.51,0.018,19.078,9.087,19.616,15.702h-39.24c0.274-3.62,1.317-6.659,3.111-9.052
				c0.731-0.976,0.534-2.359-0.442-3.091c-0.976-0.732-2.359-0.534-3.091,0.442c-2.366,3.156-3.71,7.085-4.005,11.701H382.668
				L382.668,228.499z"/>
		</g>
		<g id="CUSTOM-group_00000139972590264213309960000001351391487556995462_">
			<path style="fill:#FEA82F;" d="M165.074,215.778c0-3.208-2.229-5.182-4.02-6.768c-1.717-1.52-2.769-2.529-2.769-4.032
				c0-1.704-1.382-3.086-3.086-3.086c-1.704,0-3.086,1.382-3.086,3.086c0,4.358,2.802,6.84,4.848,8.652
				c0.773,0.684,1.94,1.719,1.94,2.148C159.053,219.867,164.923,219.866,165.074,215.778z"/>
			<path style="fill:#FEA82F;" d="M145.787,215.47c-1.631,0-2.966-1.265-3.078-2.867c-0.189-0.244-0.673-0.675-1.007-0.972
				c-1.445-1.288-3.63-3.233-3.63-6.653c0-1.704,1.382-3.086,3.086-3.086s3.086,1.382,3.086,3.086c0,0.562,0.371,0.982,1.563,2.044
				c1.294,1.152,3.065,2.73,3.065,5.361C148.873,214.088,147.492,215.47,145.787,215.47L145.787,215.47z"/>
		</g>
		<text transform="matrix(1 -0.0019 0.0019 1 31.8108 259.4841)" style="font-family:'Damion'; font-size:79.6585px;">GoodFood</text>
	</g>
	<g>
		
			<text transform="matrix(1 0 0 1 170.084 291.9557)" style="font-family:'Quicksand-Bold'; font-size:20.3041px; letter-spacing:1;">Fast &amp; good food</text>
	</g>
</g>
</svg>
